<?xml version="1.0" standalone="no"?>
<!DOCTYPE svg PUBLIC "-//W3C//DTD SVG 20010904//EN"
 "http://www.w3.org/TR/2001/REC-SVG-20010904/DTD/svg10.dtd">
<svg version="1.0" xmlns="http://www.w3.org/2000/svg"
 width="700.000000pt" height="700.000000pt" viewBox="0 0 700.000000 700.000000"
 preserveAspectRatio="xMidYMid meet">
<metadata>
Created by potrace 1.14, written by Peter Selinger 2001-2017
</metadata>
<g transform="translate(0.000000,700.000000) scale(0.100000,-0.100000)"
fill="#000000" stroke="none">
<path d="M6275 6703 c-22 -9 -69 -27 -105 -40 -36 -13 -74 -28 -85 -33 -11 -5
-83 -32 -160 -60 -77 -29 -185 -69 -240 -90 -55 -21 -181 -68 -280 -105 -99
-36 -207 -77 -240 -90 -33 -13 -235 -89 -449 -169 -214 -80 -391 -148 -393
-150 -3 -3 242 -162 271 -176 6 -3 38 -22 71 -44 33 -21 76 -48 95 -60 19 -13
53 -34 75 -48 22 -14 77 -49 122 -77 l82 -52 -19 -22 c-10 -12 -55 -67 -101
-122 -46 -55 -86 -102 -89 -105 -3 -3 -39 -43 -80 -90 -206 -234 -569 -592
-760 -748 -25 -20 -49 -42 -55 -48 -17 -19 -174 -146 -315 -255 -221 -172
-375 -280 -720 -505 -57 -37 -263 -159 -388 -231 -125 -71 -594 -309 -702
-357 -36 -15 -85 -37 -109 -48 -79 -35 -345 -144 -396 -163 -27 -9 -63 -23
-80 -30 -132 -56 -538 -185 -788 -250 -71 -18 -130 -35 -132 -37 -8 -7 435
-803 448 -806 24 -5 496 164 807 290 137 55 136 55 360 154 149 66 670 321
680 333 3 3 32 20 65 37 191 98 539 311 788 483 93 64 179 123 191 131 34 23
130 94 136 100 3 3 41 32 85 65 68 51 313 252 395 324 134 118 194 175 385
366 367 366 674 736 911 1097 l51 78 74 -47 c41 -25 97 -61 124 -78 323 -207
355 -225 356 -202 1 12 2 33 4 47 10 100 17 174 20 218 2 28 6 77 9 109 3 32
8 87 11 123 7 79 12 136 20 215 6 60 9 98 20 230 3 39 8 90 10 115 3 25 7 77
11 115 3 39 7 86 9 105 2 19 6 73 10 120 3 47 8 96 10 110 2 14 7 63 10 110 4
47 8 101 10 120 2 19 6 63 10 98 3 34 3 62 -2 61 -4 0 -26 -7 -48 -16z"/>
<path d="M6436 5111 c-3 -9 -7 -52 -11 -96 -3 -44 -7 -93 -9 -110 -2 -16 -7
-68 -10 -115 -4 -47 -9 -105 -12 -130 -2 -25 -6 -72 -9 -105 -6 -82 -15 -168
-18 -171 -1 -2 -63 36 -137 83 -145 91 -174 110 -318 200 -51 32 -125 79 -165
105 -80 53 -79 53 -126 -21 l-31 -48 0 -2181 0 -2181 533 2 532 2 0 2390 0
2390 -107 1 c-91 1 -108 -2 -112 -15z"/>
<path d="M4380 3372 c-8 -3 -40 -26 -70 -51 -30 -25 -63 -53 -73 -61 -11 -8
-24 -20 -31 -25 -47 -44 -347 -275 -357 -275 -4 0 -6 -588 -5 -1307 l1 -1308
533 -2 532 -2 0 1517 0 1518 -257 0 c-142 1 -265 -1 -273 -4z"/>
<path d="M2554 2162 c-71 -37 -205 -103 -297 -147 l-167 -79 0 -797 0 -797
533 2 532 1 2 943 2 942 -237 -1 -237 0 -131 -67z"/>
<path d="M344 1616 c-2 -6 -3 -294 -1 -641 l2 -630 533 -2 532 -1 0 644 -1
644 -47 -4 c-26 -2 -85 -19 -132 -36 -113 -42 -584 -200 -596 -200 -5 0 -25
30 -45 68 -20 37 -49 90 -64 118 l-28 51 -74 0 c-45 0 -77 -5 -79 -11z"/>
</g>
</svg>
